#define iconify_width 8
#define iconify_height 8
static unsigned char iconify_bits[] = {
   0x18, 0x10, 0x10, 0x10, 0x10, 0x38, 0x00, 0x00 };
