#define max_width 8
#define max_height 8
static unsigned char max_bits[] = {
   0x18, 0x24, 0x20, 0x18, 0x04, 0x3c, 0x00, 0x00 };
