#define close_width 8
#define close_height 8
static unsigned char close_bits[] = {
   0x1c, 0x1c, 0x1c, 0x1c, 0x1c, 0x1c, 0x1c, 0x1c };
