#define close_width 8
#define close_height 8
static unsigned char close_bits[] = {
   0x3c, 0x3c, 0x3c, 0x3c, 0x24, 0x24, 0x24, 0x3c };
