#define bullet_width 8
#define bullet_height 8
static unsigned char bullet_bits[] = {
   0x00, 0x1e, 0x00, 0x3e, 0x00, 0x1e, 0x00, 0x00 };
