#define close_width 6
#define close_height 6
static unsigned char close_bits[] = {
   0x04, 0x15, 0x0e, 0x0e, 0x15, 0x04 };
