#define max_width 6
#define max_height 6
static unsigned char max_bits[] = {
   0x04, 0x04, 0x1f, 0x04, 0x04, 0x00 };
