#define close_width 11
#define close_height 11
static unsigned char close_bits[] = {
   0x00, 0x00, 0x00, 0x06, 0x00, 0x03, 0x80, 0x01, 0xc0, 0x00, 0x60, 0x00,
   0x30, 0x00, 0x18, 0x00, 0x0c, 0x00, 0x06, 0x00, 0x00, 0x00 };
