#define bullet_width 5
#define bullet_height 5
static unsigned char bullet_bits[] = {
   0x0e, 0x1b, 0x01, 0x03, 0x02 };
