#define 2e52603506774bcb869e1ca2e4e37b3b_width 10
#define 2e52603506774bcb869e1ca2e4e37b3b_height 10
static char 2e52603506774bcb869e1ca2e4e37b3b_bits[] = {
  0xFF, 0x01, 0xFF, 0x01, 0x03, 0x00, 0x03, 0x00, 0x73, 0x00, 0x73, 0x00, 
  0x73, 0x00, 0x03, 0x00, 0x03, 0x00, 0x00, 0x00, };
