#define iconify_width 8
#define iconify_height 8
static unsigned char iconify_bits[] = {
   0xd8, 0xd8, 0x00, 0xdb, 0xdb, 0x00, 0xdb, 0xdb };
