#define max_width 8
#define max_height 8
static unsigned char max_bits[] = {
   0xdb, 0xdb, 0x00, 0xdb, 0xdb, 0x00, 0x1b, 0x1b };
